<svg width="274" height="109" viewBox="0 0 274 109" fill="none" xmlns="http://www.w3.org/2000/svg">
<rect x="1" y="44" width="272" height="65" fill="#938F83"/>
<path d="M273 2V44H228L273 2Z" fill="#938F83" stroke="#938F83"/>
<path d="M1 2V44H46L1 2Z" fill="#938F83" stroke="#938F83"/>
<path d="M52.2652 73.492V76.908C52.2652 78.8307 51.7986 80.436 50.8652 81.724C49.9319 83.012 48.7092 83.9267 47.1972 84.468C45.6852 85.0093 43.9026 85.28 41.8492 85.28C39.7959 85.28 38.0132 85.0093 36.5012 84.468C34.9892 83.9267 33.7666 83.012 32.8332 81.724C31.8999 80.436 31.4332 78.812 31.4332 76.852V73.548C31.4332 70.7293 32.3946 68.62 34.3172 67.22C36.2586 65.82 38.7692 65.12 41.8492 65.12C44.9292 65.12 47.4306 65.82 49.3532 67.22C51.2946 68.62 52.2652 70.7107 52.2652 73.492ZM38.9932 72.96V77.44C38.9932 78.2053 39.2452 78.7933 39.7492 79.204C40.2719 79.6147 40.9719 79.82 41.8492 79.82C42.7266 79.82 43.4172 79.6147 43.9212 79.204C44.4439 78.7747 44.7052 78.1773 44.7052 77.412V72.988C44.7052 72.2227 44.4439 71.6347 43.9212 71.224C43.4172 70.7947 42.7266 70.58 41.8492 70.58C40.9719 70.58 40.2719 70.7853 39.7492 71.196C39.2452 71.6067 38.9932 72.1947 38.9932 72.96ZM55.9783 65.4H75.2983C75.5036 65.4 75.6809 65.4747 75.8303 65.624C75.9796 65.7733 76.0543 65.9507 76.0543 66.156V70.664C76.0543 70.8693 75.9796 71.0467 75.8303 71.196C75.6809 71.3453 75.5036 71.42 75.2983 71.42H69.2783V84.244C69.2783 84.4493 69.2036 84.6267 69.0543 84.776C68.9049 84.9253 68.7276 85 68.5223 85H62.7543C62.5489 85 62.3716 84.9253 62.2223 84.776C62.0729 84.6267 61.9983 84.4493 61.9983 84.244V71.42H55.9783C55.7729 71.42 55.5956 71.3453 55.4463 71.196C55.2969 71.0467 55.2223 70.8693 55.2223 70.664V66.156C55.2223 65.9507 55.2969 65.7733 55.4463 65.624C55.5956 65.4747 55.7729 65.4 55.9783 65.4ZM80.3833 65.4H98.4713C98.6767 65.4 98.854 65.4747 99.0033 65.624C99.1527 65.7733 99.2273 65.9507 99.2273 66.156V84.244C99.2273 84.4493 99.1527 84.6267 99.0033 84.776C98.854 84.9253 98.6767 85 98.4713 85H92.9833C92.778 85 92.6007 84.9253 92.4513 84.776C92.302 84.6267 92.2273 84.4493 92.2273 84.244V71.448H86.6273V84.244C86.6273 84.4493 86.5527 84.6267 86.4033 84.776C86.254 84.9253 86.0767 85 85.8713 85H80.3833C80.178 85 80.0007 84.9347 79.8513 84.804C79.702 84.6547 79.6273 84.468 79.6273 84.244V66.156C79.6273 65.9507 79.702 65.7733 79.8513 65.624C80.0007 65.4747 80.178 65.4 80.3833 65.4ZM105.6 65.4H116.072C118.723 65.4 120.823 66.044 122.372 67.332C123.922 68.62 124.696 70.272 124.696 72.288C124.696 74.304 124.043 75.9093 122.736 77.104C121.43 78.28 119.208 78.868 116.072 78.868H112.376V84.244C112.376 84.4493 112.302 84.6267 112.152 84.776C112.003 84.9253 111.826 85 111.62 85H105.6C105.395 85 105.218 84.9253 105.068 84.776C104.919 84.6267 104.844 84.4493 104.844 84.244V66.156C104.844 65.9507 104.919 65.7733 105.068 65.624C105.218 65.4747 105.395 65.4 105.6 65.4ZM112.404 70.608V73.688H115.96C116.39 73.688 116.735 73.5573 116.996 73.296C117.276 73.0347 117.416 72.6707 117.416 72.204C117.416 71.7373 117.286 71.3547 117.024 71.056C116.763 70.7573 116.408 70.608 115.96 70.608H112.404ZM131.713 85H126.421C126.253 85 126.104 84.944 125.973 84.832C125.861 84.7013 125.805 84.58 125.805 84.468C125.805 84.356 125.815 84.272 125.833 84.216L131.937 66.324C132.105 65.708 132.525 65.4 133.197 65.4H140.981C141.653 65.4 142.073 65.708 142.241 66.324L148.345 84.216C148.364 84.272 148.373 84.356 148.373 84.468C148.373 84.58 148.308 84.7013 148.177 84.832C148.065 84.944 147.925 85 147.757 85H142.465C141.868 85 141.448 84.6827 141.205 84.048L140.505 82.088H133.673L132.973 84.048C132.731 84.6827 132.311 85 131.713 85ZM139.077 76.628L137.089 70.804L135.101 76.628H139.077ZM171.463 78.84C171.463 82.9467 168.831 85 163.567 85H152.031C151.825 85 151.648 84.9253 151.499 84.776C151.349 84.6267 151.275 84.4493 151.275 84.244V66.156C151.275 65.9507 151.349 65.7733 151.499 65.624C151.648 65.4747 151.825 65.4 152.031 65.4H163.287C165.937 65.4 167.888 65.8853 169.139 66.856C170.408 67.808 171.043 69.2547 171.043 71.196V71.28C171.043 72.176 170.8 72.9413 170.315 73.576C169.829 74.2107 169.325 74.612 168.803 74.78C169.531 75.004 170.156 75.4987 170.679 76.264C171.201 77.0107 171.463 77.8693 171.463 78.84ZM158.555 77.44V80.184H162.615C163.044 80.184 163.361 80.044 163.567 79.764C163.791 79.4653 163.903 79.1387 163.903 78.784V78.756C163.903 78.4013 163.781 78.0933 163.539 77.832C163.315 77.5707 163.007 77.44 162.615 77.44H158.555ZM163.147 72.372C163.352 72.092 163.455 71.784 163.455 71.448C163.455 71.112 163.352 70.8227 163.147 70.58C162.96 70.3373 162.68 70.216 162.307 70.216H158.555V72.764H162.307C162.68 72.764 162.96 72.6333 163.147 72.372ZM175.652 65.4H180.86C181.065 65.4 181.242 65.4747 181.392 65.624C181.541 65.7733 181.616 65.9507 181.616 66.156V74.388L187.72 65.96C188 65.5867 188.364 65.4 188.812 65.4H193.348C193.553 65.4 193.73 65.4747 193.88 65.624C194.029 65.7733 194.104 65.9507 194.104 66.156V84.244C194.104 84.4493 194.029 84.6267 193.88 84.776C193.73 84.9253 193.553 85 193.348 85H188.14C187.934 85 187.757 84.9253 187.608 84.776C187.458 84.6267 187.384 84.4493 187.384 84.244V76.628L181.28 84.412C180.981 84.804 180.608 85 180.16 85H175.652C175.446 85 175.269 84.9253 175.12 84.776C174.97 84.6267 174.896 84.4493 174.896 84.244V66.156C174.896 65.9507 174.97 65.7733 175.12 65.624C175.269 65.4747 175.446 65.4 175.652 65.4ZM198.713 65.4H218.033C218.238 65.4 218.415 65.4747 218.565 65.624C218.714 65.7733 218.789 65.9507 218.789 66.156V70.664C218.789 70.8693 218.714 71.0467 218.565 71.196C218.415 71.3453 218.238 71.42 218.033 71.42H212.013V84.244C212.013 84.4493 211.938 84.6267 211.789 84.776C211.639 84.9253 211.462 85 211.257 85H205.489C205.283 85 205.106 84.9253 204.957 84.776C204.807 84.6267 204.733 84.4493 204.733 84.244V71.42H198.713C198.507 71.42 198.33 71.3453 198.181 71.196C198.031 71.0467 197.957 70.8693 197.957 70.664V66.156C197.957 65.9507 198.031 65.7733 198.181 65.624C198.33 65.4747 198.507 65.4 198.713 65.4ZM231.462 76.74V79.764H234.682C235.279 79.764 235.736 79.624 236.054 79.344C236.371 79.064 236.53 78.6813 236.53 78.196C236.53 77.2253 235.914 76.74 234.682 76.74H231.462ZM231.462 66.156V71.644H234.682C237.295 71.644 239.423 72.2227 241.066 73.38C242.708 74.5373 243.53 76.1707 243.53 78.28C243.53 80.3893 242.708 82.0413 241.066 83.236C239.442 84.412 237.323 85 234.71 85H224.938C224.732 85 224.555 84.9253 224.406 84.776C224.256 84.6267 224.182 84.4493 224.182 84.244V66.156C224.182 65.9507 224.256 65.7733 224.406 65.624C224.555 65.4747 224.732 65.4 224.938 65.4H230.706C230.911 65.4 231.088 65.4747 231.238 65.624C231.387 65.7733 231.462 65.9507 231.462 66.156Z" fill="white"/>
</svg>
