<svg width="51" height="50" viewBox="0 0 51 50" fill="none" xmlns="http://www.w3.org/2000/svg">
<path d="M0.333374 0V50H50.3334V0L40.3334 10H10.3334L0.333374 0Z" fill="white" fill-opacity="0.8"/>
<circle cx="24.8125" cy="31.9495" r="14.4792" fill="#C4C4C4" fill-opacity="0.5"/>
<path d="M29.9838 44.36C29.9838 46.0736 27.0974 46.4285 24.8126 46.4285C22.5279 46.4285 16.5388 45.0394 16.5388 43.3258C16.5388 41.6122 19.6415 38.1547 23.7784 40.2231C28.9495 39.1889 29.9838 42.6465 29.9838 44.36Z" fill="#E7E7E7" fill-opacity="0.5"/>
<path fill-rule="evenodd" clip-rule="evenodd" d="M22.4901 23.8782C24.9477 22.0653 25.5658 16.2061 24.8126 13.9465C23.9852 11.4644 28.9495 17.0492 31.018 21.1861C31.0644 21.279 31.151 21.4394 31.2667 21.6542C31.9436 22.9095 33.6209 26.0202 34.1436 28.3387C34.7902 29.6063 35.1549 31.0419 35.1549 32.5626C35.1549 37.7032 30.9875 41.8706 25.8469 41.8706C20.7062 41.8706 16.5388 37.7032 16.5388 32.5626C16.5388 28.6053 19.0082 25.2249 22.4901 23.8782Z" fill="black" fill-opacity="0.5"/>
</svg>
