<svg width="101" height="101" viewBox="0 0 101 101" fill="none" xmlns="http://www.w3.org/2000/svg">
<path d="M0 0V101H101V0L80.8 20.2H20.2L0 0Z" fill="white" fill-opacity="0.8"/>
<circle cx="49.4481" cy="64.5378" r="29.2479" fill="#C4C4C4" fill-opacity="0.5"/>
<path d="M59.8932 89.6074C59.8932 93.0688 54.0627 93.7857 49.4475 93.7857C44.8323 93.7857 32.7344 90.9797 32.7344 87.5183C32.7344 84.0569 39.0018 77.0726 47.3583 81.2509C57.804 79.1617 59.8932 86.146 59.8932 89.6074Z" fill="#E7E7E7" fill-opacity="0.5"/>
<path fill-rule="evenodd" clip-rule="evenodd" d="M44.7556 48.2344C49.7202 44.5729 50.9689 32.7366 49.4474 28.1721C47.7761 23.1582 57.804 34.4396 61.9823 42.7961C62.0761 42.9837 62.2509 43.3078 62.4847 43.7416C63.8519 46.2773 67.2396 52.5602 68.2957 57.2434C69.6023 59.8044 70.3391 62.7044 70.3391 65.7766C70.3391 76.1608 61.921 84.5788 51.5369 84.5788C41.1527 84.5788 32.7346 76.1608 32.7346 65.7766C32.7346 57.7833 37.7225 50.955 44.7556 48.2344Z" fill="black" fill-opacity="0.5"/>
</svg>
