<svg width="44" height="44" viewBox="0 0 44 44" fill="none" xmlns="http://www.w3.org/2000/svg">
<path d="M0 0V44H44V0L35.2 8.8H8.8L0 0Z" fill="white" fill-opacity="0.8"/>
<circle cx="21.5417" cy="28.1155" r="12.7417" fill="#C4C4C4" fill-opacity="0.5"/>
<path d="M26.0923 39.0369C26.0923 40.5449 23.5523 40.8572 21.5417 40.8572C19.5311 40.8572 14.2607 39.6347 14.2607 38.1268C14.2607 36.6189 16.9911 33.5762 20.6316 35.3964C25.1822 34.4863 26.0923 37.529 26.0923 39.0369Z" fill="#E7E7E7" fill-opacity="0.5"/>
<path fill-rule="evenodd" clip-rule="evenodd" d="M19.4977 21.0129C21.6605 19.4178 22.2044 14.2615 21.5416 12.273C20.8135 10.0887 25.1821 15.0034 27.0023 18.6438C27.0432 18.7256 27.1193 18.8668 27.2212 19.0558C27.8169 20.1604 29.2928 22.8977 29.7528 24.9379C30.3219 26.0535 30.6429 27.3168 30.6429 28.6551C30.6429 33.1789 26.9756 36.8462 22.4518 36.8462C17.928 36.8462 14.2607 33.1789 14.2607 28.6551C14.2607 25.1729 16.4337 22.1981 19.4977 21.0129Z" fill="black" fill-opacity="0.5"/>
</svg>
