<svg width="50" height="50" viewBox="0 0 50 50" fill="none" xmlns="http://www.w3.org/2000/svg">
<g id="Group 8">
<path id="Vector 31" d="M0 0V50H50V0L40 10H10L0 0Z" fill="white" fill-opacity="0.8"/>
<g id="Group 7">
<path id="Ellipse 3" d="M38.9583 31.9494C38.9583 39.946 32.4758 46.4286 24.4792 46.4286C16.4825 46.4286 10 39.946 10 31.9494C10 23.9528 16.4825 17.4702 24.4792 17.4702C32.4758 17.4702 38.9583 23.9528 38.9583 31.9494Z" fill="#C4C4C4" fill-opacity="0.5"/>
<path id="Ellipse 5" d="M29.6504 44.3601C29.6504 46.0737 26.764 46.4286 24.4793 46.4286C22.1945 46.4286 16.2054 45.0395 16.2054 43.3259C16.2054 41.6123 19.3081 38.1548 23.445 40.2232C28.6162 39.189 29.6504 42.6466 29.6504 44.3601Z" fill="#E7E7E7" fill-opacity="0.5"/>
<path id="Union" fill-rule="evenodd" clip-rule="evenodd" d="M22.1566 23.8784C24.6142 22.0656 25.2324 16.2062 24.4792 13.9466C23.6518 11.4644 28.6161 17.0493 30.6845 21.1862C30.731 21.2791 30.8175 21.4395 30.9333 21.6543C31.6101 22.9096 33.2873 26.0201 33.8101 28.3385C34.4568 29.6063 34.8215 31.0419 34.8215 32.5627C34.8215 37.7033 30.6542 41.8707 25.5135 41.8707C20.3728 41.8707 16.2054 37.7033 16.2054 32.5627C16.2054 28.6055 18.6748 25.2252 22.1566 23.8784Z" fill="black" fill-opacity="0.5"/>
</g>
</g>
</svg>
