<svg width="142" height="42" viewBox="0 0 142 42" fill="none" xmlns="http://www.w3.org/2000/svg">
<rect x="2.5" y="1.20987" width="135.9" height="37.0369" fill="white" fill-opacity="0.1" stroke="white"/>
<path d="M140.639 2.0027L138.948 1.14709L138.525 38.366L2 38.7938L3.69072 40.9328H140.639V2.0027Z" fill="white" fill-opacity="0.2" stroke="white" stroke-linecap="round"/>
<path d="M5.02426 23.1322C5.01226 22.9882 5.05426 22.8742 5.15026 22.7902C5.25826 22.6942 5.37826 22.6462 5.51026 22.6462H6.96826C7.08826 22.6462 7.19026 22.6942 7.27426 22.7902C7.35826 22.8742 7.43626 22.9822 7.50826 23.1142C7.73626 23.5342 8.07226 23.8222 8.51626 23.9782C8.96026 24.1222 9.47626 24.1942 10.0643 24.1942C10.4243 24.1942 10.7663 24.1702 11.0903 24.1222C11.4143 24.0742 11.6963 23.9902 11.9363 23.8702C12.1763 23.7382 12.3623 23.5702 12.4943 23.3662C12.6383 23.1622 12.7103 22.9042 12.7103 22.5922C12.7103 22.2922 12.6383 22.0402 12.4943 21.8362C12.3623 21.6322 12.1763 21.4702 11.9363 21.3502C11.6963 21.2182 11.4143 21.1222 11.0903 21.0622C10.7663 21.0022 10.4243 20.9722 10.0643 20.9722H8.46226C8.33026 20.9602 8.22226 20.9122 8.13826 20.8282C8.05426 20.7322 8.01226 20.6182 8.01226 20.4862V19.2082C8.01226 19.0762 8.05426 18.9682 8.13826 18.8842C8.22226 18.7882 8.33026 18.7342 8.46226 18.7222H9.95626C10.7123 18.7222 11.3003 18.6022 11.7203 18.3622C12.1403 18.1222 12.3503 17.7502 12.3503 17.2462C12.3503 16.7062 12.1343 16.3222 11.7023 16.0942C11.2823 15.8542 10.7063 15.7342 9.97426 15.7342C9.56626 15.7342 9.14626 15.8122 8.71426 15.9682C8.28226 16.1242 7.95226 16.4062 7.72426 16.8142C7.65226 16.9462 7.57426 17.0602 7.49026 17.1562C7.40626 17.2402 7.30426 17.2822 7.18426 17.2822H5.72626C5.59426 17.2822 5.47426 17.2402 5.36626 17.1562C5.27026 17.0602 5.22826 16.9402 5.24026 16.7962C5.27626 16.3162 5.40826 15.8722 5.63626 15.4642C5.87626 15.0562 6.20026 14.7082 6.60826 14.4202C7.02826 14.1202 7.52026 13.8922 8.08426 13.7362C8.66026 13.5682 9.29026 13.4842 9.97426 13.4842C11.4863 13.4842 12.6623 13.8202 13.5023 14.4922C14.3543 15.1642 14.7803 16.0822 14.7803 17.2462C14.7803 17.7982 14.6723 18.2782 14.4563 18.6862C14.2403 19.0822 13.9703 19.4362 13.6463 19.7482C14.0783 20.0842 14.4323 20.4922 14.7083 20.9722C14.9963 21.4522 15.1403 21.9922 15.1403 22.5922C15.1403 23.2162 15.0143 23.7682 14.7623 24.2482C14.5103 24.7282 14.1563 25.1302 13.7003 25.4542C13.2563 25.7782 12.7223 26.0242 12.0983 26.1922C11.4863 26.3602 10.8083 26.4442 10.0643 26.4442C9.28426 26.4442 8.58826 26.3662 7.97626 26.2102C7.36426 26.0422 6.84226 25.8142 6.41026 25.5262C5.99026 25.2262 5.66026 24.8782 5.42026 24.4822C5.19226 24.0742 5.06026 23.6242 5.02426 23.1322ZM23.1105 13.6642C23.3025 13.6642 23.4465 13.7182 23.5425 13.8262C23.6385 13.9222 23.7225 14.0722 23.7945 14.2762L28.2045 25.6522C28.2165 25.6882 28.2225 25.7302 28.2225 25.7782C28.2225 25.9102 28.1745 26.0242 28.0785 26.1202C27.9825 26.2162 27.8685 26.2642 27.7365 26.2642H26.4405C26.2005 26.2642 26.0325 26.2162 25.9365 26.1202C25.8405 26.0122 25.7745 25.9102 25.7385 25.8142L24.9645 23.8162H19.2765L18.5025 25.8142C18.4665 25.9102 18.4005 26.0122 18.3045 26.1202C18.2085 26.2162 18.0405 26.2642 17.8005 26.2642H16.5045C16.3725 26.2642 16.2585 26.2162 16.1625 26.1202C16.0665 26.0242 16.0185 25.9102 16.0185 25.7782C16.0185 25.7302 16.0245 25.6882 16.0365 25.6522L20.4465 14.2762C20.5185 14.0722 20.6025 13.9222 20.6985 13.8262C20.7945 13.7182 20.9385 13.6642 21.1305 13.6642H23.1105ZM24.1005 21.5662L22.1205 16.4362L20.1405 21.5662H24.1005ZM39.4031 25.5082C39.4631 25.5682 39.4991 25.6222 39.5111 25.6702C39.5231 25.7182 39.5291 25.7542 39.5291 25.7782C39.5291 25.9102 39.4811 26.0242 39.3851 26.1202C39.2891 26.2162 39.1751 26.2642 39.0431 26.2642H37.3331C37.0931 26.2642 36.9011 26.2042 36.7571 26.0842C36.6131 25.9522 36.5291 25.8742 36.5051 25.8502L32.2751 21.0802V25.7782C32.2751 25.9102 32.2271 26.0242 32.1311 26.1202C32.0351 26.2162 31.9211 26.2642 31.7891 26.2642H30.3311C30.1991 26.2642 30.0851 26.2162 29.9891 26.1202C29.8931 26.0242 29.8451 25.9102 29.8451 25.7782V14.1502C29.8451 14.0182 29.8931 13.9042 29.9891 13.8082C30.0851 13.7122 30.1991 13.6642 30.3311 13.6642H31.7891C31.9211 13.6642 32.0351 13.7122 32.1311 13.8082C32.2271 13.9042 32.2751 14.0182 32.2751 14.1502V18.3802L36.1991 14.0602C36.3071 13.9402 36.4211 13.8442 36.5411 13.7722C36.6611 13.7002 36.8171 13.6642 37.0091 13.6642H38.6651C38.7971 13.6642 38.9111 13.7122 39.0071 13.8082C39.1031 13.9042 39.1511 14.0182 39.1511 14.1502C39.1511 14.2462 39.1151 14.3362 39.0431 14.4202L34.2011 19.6942L39.4031 25.5082ZM47.0519 13.6642C47.2439 13.6642 47.3879 13.7182 47.4839 13.8262C47.5799 13.9222 47.6639 14.0722 47.7359 14.2762L52.1459 25.6522C52.1579 25.6882 52.1639 25.7302 52.1639 25.7782C52.1639 25.9102 52.1159 26.0242 52.0199 26.1202C51.9239 26.2162 51.8099 26.2642 51.6779 26.2642H50.3819C50.1419 26.2642 49.9739 26.2162 49.8779 26.1202C49.7819 26.0122 49.7159 25.9102 49.6799 25.8142L48.9059 23.8162H43.2179L42.4439 25.8142C42.4079 25.9102 42.3419 26.0122 42.2459 26.1202C42.1499 26.2162 41.9819 26.2642 41.7419 26.2642H40.4459C40.3139 26.2642 40.1999 26.2162 40.1039 26.1202C40.0079 26.0242 39.9599 25.9102 39.9599 25.7782C39.9599 25.7302 39.9659 25.6882 39.9779 25.6522L44.3879 14.2762C44.4599 14.0722 44.5439 13.9222 44.6399 13.8262C44.7359 13.7182 44.8799 13.6642 45.0719 13.6642H47.0519ZM48.0419 21.5662L46.0619 16.4362L44.0819 21.5662H48.0419ZM52.9247 23.1322C52.9127 22.9882 52.9547 22.8742 53.0507 22.7902C53.1587 22.6942 53.2787 22.6462 53.4107 22.6462H54.8687C54.9887 22.6462 55.0907 22.6942 55.1747 22.7902C55.2587 22.8742 55.3367 22.9822 55.4087 23.1142C55.6367 23.5342 55.9727 23.8222 56.4167 23.9782C56.8607 24.1222 57.3767 24.1942 57.9647 24.1942C58.3247 24.1942 58.6667 24.1702 58.9907 24.1222C59.3147 24.0742 59.5967 23.9902 59.8367 23.8702C60.0767 23.7382 60.2627 23.5702 60.3947 23.3662C60.5387 23.1622 60.6107 22.9042 60.6107 22.5922C60.6107 22.2922 60.5387 22.0402 60.3947 21.8362C60.2627 21.6322 60.0767 21.4702 59.8367 21.3502C59.5967 21.2182 59.3147 21.1222 58.9907 21.0622C58.6667 21.0022 58.3247 20.9722 57.9647 20.9722H56.3627C56.2307 20.9602 56.1227 20.9122 56.0387 20.8282C55.9547 20.7322 55.9127 20.6182 55.9127 20.4862V19.2082C55.9127 19.0762 55.9547 18.9682 56.0387 18.8842C56.1227 18.7882 56.2307 18.7342 56.3627 18.7222H57.8567C58.6127 18.7222 59.2007 18.6022 59.6207 18.3622C60.0407 18.1222 60.2507 17.7502 60.2507 17.2462C60.2507 16.7062 60.0347 16.3222 59.6027 16.0942C59.1827 15.8542 58.6067 15.7342 57.8747 15.7342C57.4667 15.7342 57.0467 15.8122 56.6147 15.9682C56.1827 16.1242 55.8527 16.4062 55.6247 16.8142C55.5527 16.9462 55.4747 17.0602 55.3907 17.1562C55.3067 17.2402 55.2047 17.2822 55.0847 17.2822H53.6267C53.4947 17.2822 53.3747 17.2402 53.2667 17.1562C53.1707 17.0602 53.1287 16.9402 53.1407 16.7962C53.1767 16.3162 53.3087 15.8722 53.5367 15.4642C53.7767 15.0562 54.1007 14.7082 54.5087 14.4202C54.9287 14.1202 55.4207 13.8922 55.9847 13.7362C56.5607 13.5682 57.1907 13.4842 57.8747 13.4842C59.3867 13.4842 60.5627 13.8202 61.4027 14.4922C62.2547 15.1642 62.6807 16.0822 62.6807 17.2462C62.6807 17.7982 62.5727 18.2782 62.3567 18.6862C62.1407 19.0822 61.8707 19.4362 61.5467 19.7482C61.9787 20.0842 62.3327 20.4922 62.6087 20.9722C62.8967 21.4522 63.0407 21.9922 63.0407 22.5922C63.0407 23.2162 62.9147 23.7682 62.6627 24.2482C62.4107 24.7282 62.0567 25.1302 61.6007 25.4542C61.1567 25.7782 60.6227 26.0242 59.9987 26.1922C59.3867 26.3602 58.7087 26.4442 57.9647 26.4442C57.1847 26.4442 56.4887 26.3662 55.8767 26.2102C55.2647 26.0422 54.7427 25.8142 54.3107 25.5262C53.8907 25.2262 53.5607 24.8782 53.3207 24.4822C53.0927 24.0742 52.9607 23.6242 52.9247 23.1322ZM71.0109 13.6642C71.2029 13.6642 71.3469 13.7182 71.4429 13.8262C71.5389 13.9222 71.6229 14.0722 71.6949 14.2762L76.1049 25.6522C76.1169 25.6882 76.1229 25.7302 76.1229 25.7782C76.1229 25.9102 76.0749 26.0242 75.9789 26.1202C75.8829 26.2162 75.7689 26.2642 75.6369 26.2642H74.3409C74.1009 26.2642 73.9329 26.2162 73.8369 26.1202C73.7409 26.0122 73.6749 25.9102 73.6389 25.8142L72.8649 23.8162H67.1769L66.4029 25.8142C66.3669 25.9102 66.3009 26.0122 66.2049 26.1202C66.1089 26.2162 65.9409 26.2642 65.7009 26.2642H64.4049C64.2729 26.2642 64.1589 26.2162 64.0629 26.1202C63.9669 26.0242 63.9189 25.9102 63.9189 25.7782C63.9189 25.7302 63.9249 25.6882 63.9369 25.6522L68.3469 14.2762C68.4189 14.0722 68.5029 13.9222 68.5989 13.8262C68.6949 13.7182 68.8389 13.6642 69.0309 13.6642H71.0109ZM72.0009 21.5662L70.0209 16.4362L68.0409 21.5662H72.0009ZM84.8679 13.6642C84.9999 13.6642 85.1139 13.7122 85.2099 13.8082C85.3059 13.9042 85.3539 14.0182 85.3539 14.1502V15.4282C85.3539 15.5602 85.3059 15.6742 85.2099 15.7702C85.1139 15.8662 84.9999 15.9142 84.8679 15.9142H81.6279V25.7782C81.6279 25.9102 81.5799 26.0242 81.4839 26.1202C81.3879 26.2162 81.2739 26.2642 81.1419 26.2642H79.6839C79.5519 26.2642 79.4379 26.2162 79.3419 26.1202C79.2459 26.0242 79.1979 25.9102 79.1979 25.7782V15.9142H75.9579C75.8259 15.9142 75.7119 15.8662 75.6159 15.7702C75.5199 15.6742 75.4719 15.5602 75.4719 15.4282V14.1502C75.4719 14.0182 75.5199 13.9042 75.6159 13.8082C75.7119 13.7122 75.8259 13.6642 75.9579 13.6642H84.8679ZM87.1498 14.1502C87.1498 14.0182 87.1978 13.9042 87.2938 13.8082C87.3898 13.7122 87.5038 13.6642 87.6358 13.6642H89.0938C89.2258 13.6642 89.3398 13.7122 89.4358 13.8082C89.5318 13.9042 89.5798 14.0182 89.5798 14.1502V18.6322H92.9818C93.5578 18.6322 94.0798 18.7282 94.5478 18.9202C95.0158 19.1002 95.4118 19.3582 95.7358 19.6942C96.0718 20.0182 96.3298 20.4142 96.5098 20.8822C96.7018 21.3502 96.7978 21.8722 96.7978 22.4482C96.7978 22.9762 96.7138 23.4742 96.5458 23.9422C96.3778 24.3982 96.1318 24.8002 95.8078 25.1482C95.4838 25.4962 95.0818 25.7722 94.6018 25.9762C94.1338 26.1682 93.5938 26.2642 92.9818 26.2642H87.6358C87.5038 26.2642 87.3898 26.2162 87.2938 26.1202C87.1978 26.0242 87.1498 25.9102 87.1498 25.7782V14.1502ZM89.5798 24.0142H92.6218C93.2338 24.0142 93.6778 23.8642 93.9538 23.5642C94.2298 23.2522 94.3678 22.8802 94.3678 22.4482C94.3678 22.0162 94.2298 21.6502 93.9538 21.3502C93.6778 21.0382 93.2338 20.8822 92.6218 20.8822H89.5798V24.0142ZM108.716 13.6642C108.908 13.6642 109.052 13.7182 109.148 13.8262C109.244 13.9222 109.328 14.0722 109.4 14.2762L113.81 25.6522C113.822 25.6882 113.828 25.7302 113.828 25.7782C113.828 25.9102 113.78 26.0242 113.684 26.1202C113.588 26.2162 113.474 26.2642 113.342 26.2642H112.046C111.806 26.2642 111.638 26.2162 111.542 26.1202C111.446 26.0122 111.38 25.9102 111.344 25.8142L110.57 23.8162H104.882L104.108 25.8142C104.072 25.9102 104.006 26.0122 103.91 26.1202C103.814 26.2162 103.646 26.2642 103.406 26.2642H102.11C101.978 26.2642 101.864 26.2162 101.768 26.1202C101.672 26.0242 101.624 25.9102 101.624 25.7782C101.624 25.7302 101.63 25.6882 101.642 25.6522L106.052 14.2762C106.124 14.0722 106.208 13.9222 106.304 13.8262C106.4 13.7182 106.544 13.6642 106.736 13.6642H108.716ZM109.706 21.5662L107.726 16.4362L105.746 21.5662H109.706ZM120.761 13.6642C122.213 13.6642 123.341 14.0062 124.145 14.6902C124.949 15.3742 125.351 16.3762 125.351 17.6962C125.351 19.0162 124.949 20.0242 124.145 20.7202C123.341 21.4162 122.213 21.7642 120.761 21.7642H117.881V25.7782C117.881 25.9102 117.833 26.0242 117.737 26.1202C117.641 26.2162 117.527 26.2642 117.395 26.2642H115.937C115.805 26.2642 115.691 26.2162 115.595 26.1202C115.499 26.0242 115.451 25.9102 115.451 25.7782V14.1502C115.451 14.0182 115.499 13.9042 115.595 13.8082C115.691 13.7122 115.805 13.6642 115.937 13.6642H120.761ZM117.881 19.5142H120.671C121.355 19.5142 121.901 19.3822 122.309 19.1182C122.717 18.8422 122.921 18.3682 122.921 17.6962C122.921 17.0242 122.717 16.5622 122.309 16.3102C121.901 16.0462 121.355 15.9142 120.671 15.9142H117.881V19.5142ZM135.704 13.6642C135.836 13.6642 135.95 13.7122 136.046 13.8082C136.142 13.9042 136.19 14.0182 136.19 14.1502V15.4282C136.19 15.5602 136.142 15.6742 136.046 15.7702C135.95 15.8662 135.836 15.9142 135.704 15.9142H132.464V25.7782C132.464 25.9102 132.416 26.0242 132.32 26.1202C132.224 26.2162 132.11 26.2642 131.978 26.2642H130.52C130.388 26.2642 130.274 26.2162 130.178 26.1202C130.082 26.0242 130.034 25.9102 130.034 25.7782V15.9142H126.794C126.662 15.9142 126.548 15.8662 126.452 15.7702C126.356 15.6742 126.308 15.5602 126.308 15.4282V14.1502C126.308 14.0182 126.356 13.9042 126.452 13.8082C126.548 13.7122 126.662 13.6642 126.794 13.6642H135.704Z" fill="white"/>
</svg>
