<svg width="360" height="104" viewBox="0 0 360 104" fill="none" xmlns="http://www.w3.org/2000/svg">
<rect x="2.5" y="0.5" width="351.663" height="96.4022" fill="white" fill-opacity="0.1" stroke="white"/>
<path d="M359.141 3.31054L354.786 1.11957L353.697 96.4271L2 97.5226L6.35538 103H359.141V3.31054Z" fill="white" fill-opacity="0.2" stroke="white" stroke-linecap="round"/>
<path d="M54.6778 55.2036C54.6551 54.9316 54.7344 54.7162 54.9158 54.5576C55.1198 54.3762 55.3464 54.2856 55.5958 54.2856H58.3498C58.5764 54.2856 58.7691 54.3762 58.9278 54.5576C59.0864 54.7162 59.2338 54.9202 59.3698 55.1696C59.8004 55.9629 60.4351 56.5069 61.2738 56.8016C62.1124 57.0736 63.0871 57.2096 64.1978 57.2096C64.8778 57.2096 65.5238 57.1642 66.1358 57.0736C66.7478 56.9829 67.2804 56.8242 67.7338 56.5976C68.1871 56.3482 68.5384 56.0309 68.7878 55.6456C69.0598 55.2602 69.1958 54.7729 69.1958 54.1836C69.1958 53.6169 69.0598 53.1409 68.7878 52.7556C68.5384 52.3702 68.1871 52.0642 67.7338 51.8376C67.2804 51.5882 66.7478 51.4069 66.1358 51.2936C65.5238 51.1802 64.8778 51.1236 64.1978 51.1236H61.1718C60.9224 51.1009 60.7184 51.0102 60.5598 50.8516C60.4011 50.6702 60.3218 50.4549 60.3218 50.2056V47.7916C60.3218 47.5422 60.4011 47.3382 60.5598 47.1796C60.7184 46.9982 60.9224 46.8962 61.1718 46.8736H63.9938C65.4218 46.8736 66.5324 46.6469 67.3258 46.1936C68.1191 45.7402 68.5158 45.0376 68.5158 44.0856C68.5158 43.0656 68.1078 42.3402 67.2918 41.9096C66.4984 41.4562 65.4104 41.2296 64.0278 41.2296C63.2571 41.2296 62.4638 41.3769 61.6478 41.6716C60.8318 41.9662 60.2084 42.4989 59.7778 43.2696C59.6418 43.5189 59.4944 43.7342 59.3358 43.9156C59.1771 44.0742 58.9844 44.1536 58.7578 44.1536H56.0038C55.7544 44.1536 55.5278 44.0742 55.3238 43.9156C55.1424 43.7342 55.0631 43.5076 55.0858 43.2356C55.1538 42.3289 55.4031 41.4902 55.8338 40.7196C56.2871 39.9489 56.8991 39.2916 57.6698 38.7476C58.4631 38.1809 59.3924 37.7502 60.4578 37.4556C61.5458 37.1382 62.7358 36.9796 64.0278 36.9796C66.8838 36.9796 69.1051 37.6142 70.6918 38.8836C72.3011 40.1529 73.1058 41.8869 73.1058 44.0856C73.1058 45.1282 72.9018 46.0349 72.4938 46.8056C72.0858 47.5536 71.5758 48.2222 70.9638 48.8116C71.7798 49.4462 72.4484 50.2169 72.9698 51.1236C73.5138 52.0302 73.7858 53.0502 73.7858 54.1836C73.7858 55.3622 73.5478 56.4049 73.0718 57.3116C72.5958 58.2182 71.9271 58.9776 71.0658 59.5896C70.2271 60.2016 69.2184 60.6662 68.0398 60.9836C66.8838 61.3009 65.6031 61.4596 64.1978 61.4596C62.7244 61.4596 61.4098 61.3122 60.2538 61.0176C59.0978 60.7002 58.1118 60.2696 57.2958 59.7256C56.5024 59.1589 55.8791 58.5016 55.4258 57.7536C54.9951 56.9829 54.7458 56.1329 54.6778 55.2036ZM88.8406 37.3196C89.2033 37.3196 89.4753 37.4216 89.6566 37.6256C89.8379 37.8069 89.9966 38.0902 90.1326 38.4756L98.4626 59.9636C98.4853 60.0316 98.4966 60.1109 98.4966 60.2016C98.4966 60.4509 98.4059 60.6662 98.2246 60.8476C98.0433 61.0289 97.8279 61.1196 97.5786 61.1196H95.1306C94.6773 61.1196 94.3599 61.0289 94.1786 60.8476C93.9973 60.6436 93.8726 60.4509 93.8046 60.2696L92.3426 56.4956H81.5986L80.1366 60.2696C80.0686 60.4509 79.9439 60.6436 79.7626 60.8476C79.5813 61.0289 79.2639 61.1196 78.8106 61.1196H76.3626C76.1133 61.1196 75.8979 61.0289 75.7166 60.8476C75.5353 60.6662 75.4446 60.4509 75.4446 60.2016C75.4446 60.1109 75.4559 60.0316 75.4786 59.9636L83.8086 38.4756C83.9446 38.0902 84.1033 37.8069 84.2846 37.6256C84.4659 37.4216 84.7379 37.3196 85.1006 37.3196H88.8406ZM90.7106 52.2456L86.9706 42.5556L83.2306 52.2456H90.7106ZM119.616 59.6916C119.729 59.8049 119.797 59.9069 119.82 59.9976C119.842 60.0882 119.854 60.1562 119.854 60.2016C119.854 60.4509 119.763 60.6662 119.582 60.8476C119.4 61.0289 119.185 61.1196 118.936 61.1196H115.706C115.252 61.1196 114.89 61.0062 114.618 60.7796C114.346 60.5302 114.187 60.3829 114.142 60.3376L106.152 51.3276V60.2016C106.152 60.4509 106.061 60.6662 105.88 60.8476C105.698 61.0289 105.483 61.1196 105.234 61.1196H102.48C102.23 61.1196 102.015 61.0289 101.834 60.8476C101.652 60.6662 101.562 60.4509 101.562 60.2016V38.2376C101.562 37.9882 101.652 37.7729 101.834 37.5916C102.015 37.4102 102.23 37.3196 102.48 37.3196H105.234C105.483 37.3196 105.698 37.4102 105.88 37.5916C106.061 37.7729 106.152 37.9882 106.152 38.2376V46.2276L113.564 38.0676C113.768 37.8409 113.983 37.6596 114.21 37.5236C114.436 37.3876 114.731 37.3196 115.094 37.3196H118.222C118.471 37.3196 118.686 37.4102 118.868 37.5916C119.049 37.7729 119.14 37.9882 119.14 38.2376C119.14 38.4189 119.072 38.5889 118.936 38.7476L109.79 48.7096L119.616 59.6916ZM134.063 37.3196C134.426 37.3196 134.698 37.4216 134.879 37.6256C135.061 37.8069 135.219 38.0902 135.355 38.4756L143.685 59.9636C143.708 60.0316 143.719 60.1109 143.719 60.2016C143.719 60.4509 143.629 60.6662 143.447 60.8476C143.266 61.0289 143.051 61.1196 142.801 61.1196H140.353C139.9 61.1196 139.583 61.0289 139.401 60.8476C139.22 60.6436 139.095 60.4509 139.027 60.2696L137.565 56.4956H126.821L125.359 60.2696C125.291 60.4509 125.167 60.6436 124.985 60.8476C124.804 61.0289 124.487 61.1196 124.033 61.1196H121.585C121.336 61.1196 121.121 61.0289 120.939 60.8476C120.758 60.6662 120.667 60.4509 120.667 60.2016C120.667 60.1109 120.679 60.0316 120.701 59.9636L129.031 38.4756C129.167 38.0902 129.326 37.8069 129.507 37.6256C129.689 37.4216 129.961 37.3196 130.323 37.3196H134.063ZM135.933 52.2456L132.193 42.5556L128.453 52.2456H135.933ZM145.156 55.2036C145.134 54.9316 145.213 54.7162 145.394 54.5576C145.598 54.3762 145.825 54.2856 146.074 54.2856H148.828C149.055 54.2856 149.248 54.3762 149.406 54.5576C149.565 54.7162 149.712 54.9202 149.848 55.1696C150.279 55.9629 150.914 56.5069 151.752 56.8016C152.591 57.0736 153.566 57.2096 154.676 57.2096C155.356 57.2096 156.002 57.1642 156.614 57.0736C157.226 56.9829 157.759 56.8242 158.212 56.5976C158.666 56.3482 159.017 56.0309 159.266 55.6456C159.538 55.2602 159.674 54.7729 159.674 54.1836C159.674 53.6169 159.538 53.1409 159.266 52.7556C159.017 52.3702 158.666 52.0642 158.212 51.8376C157.759 51.5882 157.226 51.4069 156.614 51.2936C156.002 51.1802 155.356 51.1236 154.676 51.1236H151.65C151.401 51.1009 151.197 51.0102 151.038 50.8516C150.88 50.6702 150.8 50.4549 150.8 50.2056V47.7916C150.8 47.5422 150.88 47.3382 151.038 47.1796C151.197 46.9982 151.401 46.8962 151.65 46.8736H154.472C155.9 46.8736 157.011 46.6469 157.804 46.1936C158.598 45.7402 158.994 45.0376 158.994 44.0856C158.994 43.0656 158.586 42.3402 157.77 41.9096C156.977 41.4562 155.889 41.2296 154.506 41.2296C153.736 41.2296 152.942 41.3769 152.126 41.6716C151.31 41.9662 150.687 42.4989 150.256 43.2696C150.12 43.5189 149.973 43.7342 149.814 43.9156C149.656 44.0742 149.463 44.1536 149.236 44.1536H146.482C146.233 44.1536 146.006 44.0742 145.802 43.9156C145.621 43.7342 145.542 43.5076 145.564 43.2356C145.632 42.3289 145.882 41.4902 146.312 40.7196C146.766 39.9489 147.378 39.2916 148.148 38.7476C148.942 38.1809 149.871 37.7502 150.936 37.4556C152.024 37.1382 153.214 36.9796 154.506 36.9796C157.362 36.9796 159.584 37.6142 161.17 38.8836C162.78 40.1529 163.584 41.8869 163.584 44.0856C163.584 45.1282 163.38 46.0349 162.972 46.8056C162.564 47.5536 162.054 48.2222 161.442 48.8116C162.258 49.4462 162.927 50.2169 163.448 51.1236C163.992 52.0302 164.264 53.0502 164.264 54.1836C164.264 55.3622 164.026 56.4049 163.55 57.3116C163.074 58.2182 162.406 58.9776 161.544 59.5896C160.706 60.2016 159.697 60.6662 158.518 60.9836C157.362 61.3009 156.082 61.4596 154.676 61.4596C153.203 61.4596 151.888 61.3122 150.732 61.0176C149.576 60.7002 148.59 60.2696 147.774 59.7256C146.981 59.1589 146.358 58.5016 145.904 57.7536C145.474 56.9829 145.224 56.1329 145.156 55.2036ZM179.319 37.3196C179.682 37.3196 179.954 37.4216 180.135 37.6256C180.316 37.8069 180.475 38.0902 180.611 38.4756L188.941 59.9636C188.964 60.0316 188.975 60.1109 188.975 60.2016C188.975 60.4509 188.884 60.6662 188.703 60.8476C188.522 61.0289 188.306 61.1196 188.057 61.1196H185.609C185.156 61.1196 184.838 61.0289 184.657 60.8476C184.476 60.6436 184.351 60.4509 184.283 60.2696L182.821 56.4956H172.077L170.615 60.2696C170.547 60.4509 170.422 60.6436 170.241 60.8476C170.06 61.0289 169.742 61.1196 169.289 61.1196H166.841C166.592 61.1196 166.376 61.0289 166.195 60.8476C166.014 60.6662 165.923 60.4509 165.923 60.2016C165.923 60.1109 165.934 60.0316 165.957 59.9636L174.287 38.4756C174.423 38.0902 174.582 37.8069 174.763 37.6256C174.944 37.4216 175.216 37.3196 175.579 37.3196H179.319ZM181.189 52.2456L177.449 42.5556L173.709 52.2456H181.189ZM205.494 37.3196C205.743 37.3196 205.958 37.4102 206.14 37.5916C206.321 37.7729 206.412 37.9882 206.412 38.2376V40.6516C206.412 40.9009 206.321 41.1162 206.14 41.2976C205.958 41.4789 205.743 41.5696 205.494 41.5696H199.374V60.2016C199.374 60.4509 199.283 60.6662 199.102 60.8476C198.92 61.0289 198.705 61.1196 198.456 61.1196H195.702C195.452 61.1196 195.237 61.0289 195.056 60.8476C194.874 60.6662 194.784 60.4509 194.784 60.2016V41.5696H188.664C188.414 41.5696 188.199 41.4789 188.018 41.2976C187.836 41.1162 187.746 40.9009 187.746 40.6516V38.2376C187.746 37.9882 187.836 37.7729 188.018 37.5916C188.199 37.4102 188.414 37.3196 188.664 37.3196H205.494ZM209.804 38.2376C209.804 37.9882 209.895 37.7729 210.076 37.5916C210.257 37.4102 210.473 37.3196 210.722 37.3196H213.476C213.725 37.3196 213.941 37.4102 214.122 37.5916C214.303 37.7729 214.394 37.9882 214.394 38.2376V46.7036H220.82C221.908 46.7036 222.894 46.8849 223.778 47.2476C224.662 47.5876 225.41 48.0749 226.022 48.7096C226.657 49.3216 227.144 50.0696 227.484 50.9536C227.847 51.8376 228.028 52.8236 228.028 53.9116C228.028 54.9089 227.869 55.8496 227.552 56.7336C227.235 57.5949 226.77 58.3542 226.158 59.0116C225.546 59.6689 224.787 60.1902 223.88 60.5756C222.996 60.9382 221.976 61.1196 220.82 61.1196H210.722C210.473 61.1196 210.257 61.0289 210.076 60.8476C209.895 60.6662 209.804 60.4509 209.804 60.2016V38.2376ZM214.394 56.8696H220.14C221.296 56.8696 222.135 56.5862 222.656 56.0196C223.177 55.4302 223.438 54.7276 223.438 53.9116C223.438 53.0956 223.177 52.4042 222.656 51.8376C222.135 51.2482 221.296 50.9536 220.14 50.9536H214.394V56.8696ZM250.54 37.3196C250.902 37.3196 251.174 37.4216 251.356 37.6256C251.537 37.8069 251.696 38.0902 251.832 38.4756L260.162 59.9636C260.184 60.0316 260.196 60.1109 260.196 60.2016C260.196 60.4509 260.105 60.6662 259.924 60.8476C259.742 61.0289 259.527 61.1196 259.278 61.1196H256.83C256.376 61.1196 256.059 61.0289 255.878 60.8476C255.696 60.6436 255.572 60.4509 255.504 60.2696L254.042 56.4956H243.298L241.836 60.2696C241.768 60.4509 241.643 60.6436 241.462 60.8476C241.28 61.0289 240.963 61.1196 240.51 61.1196H238.062C237.812 61.1196 237.597 61.0289 237.416 60.8476C237.234 60.6662 237.144 60.4509 237.144 60.2016C237.144 60.1109 237.155 60.0316 237.178 59.9636L245.508 38.4756C245.644 38.0902 245.802 37.8069 245.984 37.6256C246.165 37.4216 246.437 37.3196 246.8 37.3196H250.54ZM252.41 52.2456L248.67 42.5556L244.93 52.2456H252.41ZM273.291 37.3196C276.034 37.3196 278.164 37.9656 279.683 39.2576C281.202 40.5496 281.961 42.4422 281.961 44.9356C281.961 47.4289 281.202 49.3329 279.683 50.6476C278.164 51.9622 276.034 52.6196 273.291 52.6196H267.851V60.2016C267.851 60.4509 267.76 60.6662 267.579 60.8476C267.398 61.0289 267.182 61.1196 266.933 61.1196H264.179C263.93 61.1196 263.714 61.0289 263.533 60.8476C263.352 60.6662 263.261 60.4509 263.261 60.2016V38.2376C263.261 37.9882 263.352 37.7729 263.533 37.5916C263.714 37.4102 263.93 37.3196 264.179 37.3196H273.291ZM267.851 48.3696H273.121C274.413 48.3696 275.444 48.1202 276.215 47.6216C276.986 47.1002 277.371 46.2049 277.371 44.9356C277.371 43.6662 276.986 42.7936 276.215 42.3176C275.444 41.8189 274.413 41.5696 273.121 41.5696H267.851V48.3696ZM301.517 37.3196C301.766 37.3196 301.982 37.4102 302.163 37.5916C302.344 37.7729 302.435 37.9882 302.435 38.2376V40.6516C302.435 40.9009 302.344 41.1162 302.163 41.2976C301.982 41.4789 301.766 41.5696 301.517 41.5696H295.397V60.2016C295.397 60.4509 295.306 60.6662 295.125 60.8476C294.944 61.0289 294.728 61.1196 294.479 61.1196H291.725C291.476 61.1196 291.26 61.0289 291.079 60.8476C290.898 60.6662 290.807 60.4509 290.807 60.2016V41.5696H284.687C284.438 41.5696 284.222 41.4789 284.041 41.2976C283.86 41.1162 283.769 40.9009 283.769 40.6516V38.2376C283.769 37.9882 283.86 37.7729 284.041 37.5916C284.222 37.4102 284.438 37.3196 284.687 37.3196H301.517Z" fill="white"/>
</svg>
